<svg xmlns="http://www.w3.org/2000/svg" width="642.648" height="213.333" viewBox="0 0 602.48267 200"><g style="line-height:100%;-inkscape-font-specification:'URW Bookman L Italic';text-align:start" font-style="italic" font-weight="400" font-size="16" font-family="URW Bookman L" letter-spacing="0" word-spacing="0"><path style="-inkscape-font-specification:'URW Bookman L Bold'" d="M83.451 3.678H0v23.196l5.658.566c15.841 1.697 19.236 5.658 19.236 23.762v97.596c0 18.104-3.395 22.065-19.236 23.762L0 173.126v23.196h76.096v-23.196l-5.658-.566c-15.841-1.697-19.236-5.658-19.236-23.762V47.525l87.978 148.797h35.077V51.202c0-18.104 3.395-22.065 19.237-23.762l5.657-.566V3.678h-76.096v23.196l5.658.566c15.841 1.697 19.236 5.658 19.236 23.762v63.65L83.451 3.677zM356.22 107.496c29.42-6.789 47.24-26.308 47.24-52.333 0-17.822-10.466-34.512-26.025-42.15-13.86-6.507-31.117-9.335-57.991-9.335H209.402v23.196l5.657.566c15.842 1.697 19.236 5.658 19.236 23.762v97.596c0 18.104-3.394 22.065-19.236 23.762l-5.657.566v23.196h99.292v-23.196l-5.657-.566c-15.842-1.697-19.237-5.658-19.237-23.762v-35.36h14.71l61.104 82.884h65.63v-23.196c-16.691-1.415-22.349-4.81-33.381-19.52l-35.644-46.11zM283.8 86.563v-44.13c0-6.507.566-7.921 3.678-9.618 3.677-1.98 9.618-2.83 18.105-2.83 16.124 0 24.328 1.981 30.834 7.356 5.658 4.526 9.335 12.73 9.335 20.65 0 9.619-5.092 18.388-13.578 22.914-7.072 3.96-14.993 5.658-28.289 5.658H283.8z" font-style="normal" font-weight="700"/><path style="-inkscape-font-specification:'URW Bookman L Bold'" d="M579.286 128.147c-8.204 13.861-14.144 22.065-21.216 28.289-11.599 10.75-27.723 17.539-41.867 17.539-11.316 0-23.197-4.527-32.25-12.447-14.71-13.013-22.064-33.664-22.064-61.952 0-46.96 19.236-76.38 49.787-76.38 13.862 0 27.157 6.79 40.17 20.085 6.79 7.355 10.75 13.296 23.48 35.361l21.782-8.204-23.763-66.76h-19.519l-2.263 6.506C537.985 3.678 521.012 0 504.321 0c-23.196 0-43.564 6.223-59.688 18.388-23.197 17.821-37.058 47.807-37.058 81.47C407.575 158.134 450.007 200 509.13 200c42.716 0 79.774-23.762 93.353-59.972l-23.197-11.88z" font-style="normal" font-weight="700"/><path d="M551.387 143.195l-30.893-16.651-30.765 16.887 6.29-34.527-25.567-24.04 34.78-4.688 14.964-31.744 15.205 31.63 34.815 4.42-25.383 24.236z" fill="teal"/></g></svg>