<?xml version="1.0" encoding="UTF-8" standalone="no"?>
<!-- Created with Inkscape (http://www.inkscape.org/) -->

<svg
   xmlns:dc="http://purl.org/dc/elements/1.1/"
   xmlns:cc="http://creativecommons.org/ns#"
   xmlns:rdf="http://www.w3.org/1999/02/22-rdf-syntax-ns#"
   xmlns:svg="http://www.w3.org/2000/svg"
   xmlns="http://www.w3.org/2000/svg"
   xmlns:sodipodi="http://sodipodi.sourceforge.net/DTD/sodipodi-0.dtd"
   xmlns:inkscape="http://www.inkscape.org/namespaces/inkscape"
   width="170.034mm"
   height="56.444443mm"
   viewBox="0 0 602.48267 200"
   id="svg2"
   version="1.1"
   inkscape:version="0.91 r13725"
   sodipodi:docname="logo.svg">
  <defs
     id="defs4" />
  <sodipodi:namedview
     id="base"
     pagecolor="#ffffff"
     bordercolor="#666666"
     borderopacity="1.0"
     inkscape:pageopacity="0.0"
     inkscape:pageshadow="2"
     inkscape:zoom="7.919596"
     inkscape:cx="47.201635"
     inkscape:cy="-1.6619791"
     inkscape:document-units="px"
     inkscape:current-layer="flowRoot3336"
     showgrid="false"
     fit-margin-top="0"
     fit-margin-left="0"
     fit-margin-right="0"
     fit-margin-bottom="0"
     inkscape:window-width="1920"
     inkscape:window-height="1056"
     inkscape:window-x="0"
     inkscape:window-y="24"
     inkscape:window-maximized="1" />
  <metadata
     id="metadata7">
    <rdf:RDF>
      <cc:Work
         rdf:about="">
        <dc:format>image/svg+xml</dc:format>
        <dc:type
           rdf:resource="http://purl.org/dc/dcmitype/StillImage" />
        <dc:title></dc:title>
      </cc:Work>
    </rdf:RDF>
  </metadata>
  <g
     inkscape:label="Capa 1"
     inkscape:groupmode="layer"
     id="layer1"
     transform="translate(722.53753,155.17954)">
    <g
       style="font-style:italic;font-variant:normal;font-weight:normal;font-stretch:normal;font-size:16px;line-height:100%;font-family:'URW Bookman L';-inkscape-font-specification:'URW Bookman L Italic';text-align:start;letter-spacing:0px;word-spacing:0px;writing-mode:lr-tb;text-anchor:start;fill:#000000;fill-opacity:1;stroke:none;stroke-width:1px;stroke-linecap:butt;stroke-linejoin:miter;stroke-opacity:1"
       id="flowRoot3336">
      <g
         id="g3532"
         transform="matrix(17.680339,0,0,17.680339,12052.169,-747.62077)">
        <path
           inkscape:connector-curvature="0"
           id="path3345"
           style="font-style:normal;font-variant:normal;font-weight:bold;font-stretch:normal;font-family:'URW Bookman L';-inkscape-font-specification:'URW Bookman L Bold'"
           d="m -717.81742,33.716477 -4.72,0 0,1.312 0.32,0.032 c 0.896,0.096 1.088,0.32 1.088,1.344 l 0,5.52 c 0,1.024 -0.192,1.248 -1.088,1.344 l -0.32,0.032 0,1.312 4.304,0 0,-1.312 -0.32,-0.032 c -0.896,-0.096 -1.088,-0.32 -1.088,-1.344 l 0,-5.728 4.976,8.416 1.984,0 0,-8.208 c 0,-1.024 0.192,-1.248 1.088,-1.344 l 0.32,-0.032 0,-1.312 -4.304,0 0,1.312 0.32,0.032 c 0.896,0.096 1.088,0.32 1.088,1.344 l 0,3.6 -3.648,-6.288 z" />
        <path
           inkscape:connector-curvature="0"
           id="path3347"
           style="font-style:normal;font-variant:normal;font-weight:bold;font-stretch:normal;font-family:'URW Bookman L';-inkscape-font-specification:'URW Bookman L Bold'"
           d="m -702.38967,39.588477 c 1.664,-0.384 2.672,-1.488 2.672,-2.96 0,-1.008 -0.592,-1.952 -1.472,-2.384 -0.784,-0.368 -1.76,-0.528 -3.28,-0.528 l -6.224,0 0,1.312 0.32,0.032 c 0.896,0.096 1.088,0.32 1.088,1.344 l 0,5.52 c 0,1.024 -0.192,1.248 -1.088,1.344 l -0.32,0.032 0,1.312 5.616,0 0,-1.312 -0.32,-0.032 c -0.896,-0.096 -1.088,-0.32 -1.088,-1.344 l 0,-2 0.832,0 3.456,4.688 3.712,0 0,-1.312 c -0.944,-0.08 -1.264,-0.272 -1.888,-1.104 l -2.016,-2.608 z m -4.096,-1.184 0,-2.496 c 0,-0.368 0.032,-0.448 0.208,-0.544 0.208,-0.112 0.544,-0.16 1.024,-0.16 0.912,0 1.376,0.112 1.744,0.416 0.32,0.256 0.528,0.72 0.528,1.168 0,0.544 -0.288,1.04 -0.768,1.296 -0.4,0.224 -0.848,0.32 -1.6,0.32 l -1.136,0 z" />
        <path
           inkscape:export-ydpi="50"
           inkscape:export-xdpi="50"
           inkscape:connector-curvature="0"
           id="path3349"
           style="font-style:normal;font-variant:normal;font-weight:bold;font-stretch:normal;font-family:'URW Bookman L';-inkscape-font-specification:'URW Bookman L Bold'"
           d="m -689.773,40.756477 c -0.464,0.784 -0.8,1.248 -1.2,1.6 -0.656,0.608 -1.568,0.992 -2.368,0.992 -0.64,0 -1.312,-0.256 -1.824,-0.704 -0.832,-0.736 -1.248,-1.904 -1.248,-3.504 0,-2.656 1.088,-4.32 2.816,-4.32 0.784,0 1.536,0.384 2.272,1.136 0.384,0.416 0.608,0.752 1.328,2 l 1.232,-0.464 -1.344,-3.776 -1.104,0 -0.128,0.368 c -0.768,-0.368 -1.728,-0.576 -2.672,-0.576 -1.312,0 -2.464,0.352 -3.376,1.04 -1.312,1.008 -2.096,2.704 -2.096,4.608 0,3.296 2.4,5.664 5.744,5.664 2.416,0 4.512,-1.344 5.28,-3.392 l -1.312,-0.672 z" />
        <path
           inkscape:export-ydpi="50"
           inkscape:export-xdpi="50"
           inkscape:transform-center-y="-0.27994658"
           inkscape:transform-center-x="0.0035077878"
           d="m -691.35098,41.607593 -1.7473,-0.941805 -1.74005,0.955124 0.35576,-1.952814 -1.44608,-1.359741 1.96717,-0.2651 0.84633,-1.795491 0.86001,1.788973 1.96915,0.250067 -1.43566,1.370747 z"
           inkscape:randomized="0"
           inkscape:rounded="0"
           inkscape:flatsided="false"
           sodipodi:arg2="1.5669769"
           sodipodi:arg1="0.93865837"
           sodipodi:r2="1.4515114"
           sodipodi:r1="2.9665425"
           sodipodi:cy="39.214287"
           sodipodi:cx="-693.10382"
           sodipodi:sides="5"
           id="path3355"
           style="opacity:1;fill:#008080;fill-opacity:1;stroke:none;stroke-width:1.87899995;stroke-linecap:round;stroke-linejoin:round;stroke-miterlimit:4;stroke-dasharray:none;stroke-dashoffset:0;stroke-opacity:1"
           sodipodi:type="star" />
      </g>
    </g>
  </g>
</svg>
